# xmcd CD database file
#
# Track frame offsets:
#	150
#	11565
#	29990
#	42992
#	59007
#	80263
#	105314
#	122930
#	139964
#	158359
#	177417
#	192574
#	203309
#	219491
#
# Disc length: 3212 seconds
#
# Revision: 0
# Processed by: cddbd v1.5.1PL0 Copyright (c) Steve Scherf et al.
# Submitted via: CD2WAV32(JP) R3.22
#
DISCID=c40c8a0e
DTITLE=BONNIE PINK - Bonnie’s Kitchen ＃2
DYEAR=2000
DGENRE=Pop
TTITLE0=Evil And Flowers
TTITLE1=Forget Me Not
TTITLE2=Hickey Hickey
TTITLE3=Silence
TTITLE4=Friends，Aren’t We？
TTITLE5=Only For Him
TTITLE6=Melody
TTITLE7=Quiet Life
TTITLE8=Meddler
TTITLE9=Mad Afternoon
TTITLE10=Get In My Hair
TTITLE11=The Last Thing I Can Do
TTITLE12=BLACKBIRD
TTITLE13=We’ve gotta find a way back to love
EXTD=
EXTT0=
EXTT1=
EXTT2=
EXTT3=
EXTT4=
EXTT5=
EXTT6=
EXTT7=
EXTT8=
EXTT9=
EXTT10=
EXTT11=
EXTT12=
EXTT13=
PLAYORDER=
